<svg xmlns="http://www.w3.org/2000/svg" width="1200" height="600" viewBox="0 0 1200 600" role="img" aria-labelledby="t d">
<title id="t">Greater Manchester areas served by Kydos Digital</title><desc id="d">Manchester, Salford, Trafford, Stockport, Tameside, Oldham, Rochdale, Bury, Bolton and Wigan.</desc>
<rect width="1200" height="600" fill="#080808"/><text x="70" y="78" fill="#cc9933" font-family="Arial,sans-serif" font-size="22" font-weight="700" letter-spacing="3">GREATER MANCHESTER COVERAGE</text>
<text x="70" y="130" fill="#fff" font-family="Arial,sans-serif" font-size="40" font-weight="700">One regional strategy, locally relevant pages.</text>
<g font-family="Arial,sans-serif" font-size="24" font-weight="700" text-anchor="middle">
<rect x="70" y="200" width="190" height="92" rx="8" fill="#800000"/><text x="165" y="255" fill="#fff">Manchester</text>
<rect x="280" y="200" width="190" height="92" rx="8" fill="#171717"/><text x="375" y="255" fill="#fff">Salford</text>
<rect x="490" y="200" width="190" height="92" rx="8" fill="#171717"/><text x="585" y="255" fill="#fff">Trafford</text>
<rect x="700" y="200" width="190" height="92" rx="8" fill="#171717"/><text x="795" y="255" fill="#fff">Stockport</text>
<rect x="910" y="200" width="190" height="92" rx="8" fill="#171717"/><text x="1005" y="255" fill="#fff">Tameside</text>
<rect x="70" y="320" width="190" height="92" rx="8" fill="#171717"/><text x="165" y="375" fill="#fff">Oldham</text>
<rect x="280" y="320" width="190" height="92" rx="8" fill="#171717"/><text x="375" y="375" fill="#fff">Rochdale</text>
<rect x="490" y="320" width="190" height="92" rx="8" fill="#171717"/><text x="585" y="375" fill="#fff">Bury</text>
<rect x="700" y="320" width="190" height="92" rx="8" fill="#171717"/><text x="795" y="375" fill="#fff">Bolton</text>
<rect x="910" y="320" width="190" height="92" rx="8" fill="#171717"/><text x="1005" y="375" fill="#fff">Wigan</text>
</g>
<text x="70" y="500" fill="#aaa" font-family="Arial,sans-serif" font-size="18">Each future local BOFU page will be written for the buying intent and business mix of that area, not copied and renamed.</text>
</svg>